<mxfile host="65bd71144e">
    <diagram id="YaTTGbRKlP_bPoNUWIIz" name="ページ1">
        <mxGraphModel dx="861" dy="642" grid="1" gridSize="10" guides="1" tooltips="1" connect="1" arrows="1" fold="1" page="1" pageScale="1" pageWidth="827" pageHeight="1169" math="0" shadow="0">
            <root>
                <mxCell id="0"/>
                <mxCell id="1" parent="0"/>
                <mxCell id="17" value="&lt;font color=&quot;#ff0000&quot;&gt;ph1対象スコープ&lt;/font&gt;" style="rounded=0;whiteSpace=wrap;html=1;fontSize=12;fillColor=none;strokeColor=#FF6666;strokeWidth=2;verticalAlign=top;" vertex="1" parent="1">
                    <mxGeometry x="70" y="190" width="410" height="250" as="geometry"/>
                </mxCell>
                <mxCell id="2" value="リバーシ&lt;br&gt;アプリケーション" style="ellipse;whiteSpace=wrap;html=1;" parent="1" vertex="1">
                    <mxGeometry x="350" y="320" width="120" height="80" as="geometry"/>
                </mxCell>
                <mxCell id="3" value="プレイヤー1" style="shape=umlActor;verticalLabelPosition=bottom;verticalAlign=top;html=1;outlineConnect=0;" parent="1" vertex="1">
                    <mxGeometry x="220" y="330" width="30" height="60" as="geometry"/>
                </mxCell>
                <mxCell id="4" value="" style="endArrow=none;html=1;exitX=0.5;exitY=0.5;exitDx=0;exitDy=0;exitPerimeter=0;entryX=0;entryY=0.5;entryDx=0;entryDy=0;" parent="1" source="3" target="2" edge="1">
                    <mxGeometry width="50" height="50" relative="1" as="geometry">
                        <mxPoint x="390" y="380" as="sourcePoint"/>
                        <mxPoint x="440" y="330" as="targetPoint"/>
                    </mxGeometry>
                </mxCell>
                <mxCell id="5" value="Webアプリ" style="shape=note;whiteSpace=wrap;html=1;backgroundOutline=1;darkOpacity=0.05;fillColor=#ffe6cc;strokeColor=#d79b00;" parent="1" vertex="1">
                    <mxGeometry x="355" y="240" width="110" height="50" as="geometry"/>
                </mxCell>
                <mxCell id="6" value="" style="endArrow=none;dashed=1;html=1;entryX=0.5;entryY=1;entryDx=0;entryDy=0;entryPerimeter=0;" parent="1" source="2" target="5" edge="1">
                    <mxGeometry width="50" height="50" relative="1" as="geometry">
                        <mxPoint x="390" y="380" as="sourcePoint"/>
                        <mxPoint x="440" y="330" as="targetPoint"/>
                    </mxGeometry>
                </mxCell>
                <mxCell id="7" value="1デバイスで黒白交互に打つ" style="shape=note;whiteSpace=wrap;html=1;backgroundOutline=1;darkOpacity=0.05;fillColor=#ffe6cc;strokeColor=#d79b00;" parent="1" vertex="1">
                    <mxGeometry x="90" y="240" width="180" height="50" as="geometry"/>
                </mxCell>
                <mxCell id="10" value="" style="endArrow=none;dashed=1;html=1;exitX=0;exitY=0;exitDx=180;exitDy=30;exitPerimeter=0;" parent="1" source="7" edge="1">
                    <mxGeometry width="50" height="50" relative="1" as="geometry">
                        <mxPoint x="390" y="370" as="sourcePoint"/>
                        <mxPoint x="280" y="360" as="targetPoint"/>
                    </mxGeometry>
                </mxCell>
                <mxCell id="11" value="プレイヤー2" style="shape=umlActor;verticalLabelPosition=bottom;verticalAlign=top;html=1;outlineConnect=0;" vertex="1" parent="1">
                    <mxGeometry x="600" y="330" width="30" height="60" as="geometry"/>
                </mxCell>
                <mxCell id="12" value="" style="endArrow=none;html=1;exitX=1;exitY=0.5;exitDx=0;exitDy=0;entryX=0.5;entryY=0.5;entryDx=0;entryDy=0;entryPerimeter=0;" edge="1" parent="1" source="2" target="11">
                    <mxGeometry width="50" height="50" relative="1" as="geometry">
                        <mxPoint x="390" y="440" as="sourcePoint"/>
                        <mxPoint x="440" y="390" as="targetPoint"/>
                    </mxGeometry>
                </mxCell>
                <mxCell id="19" value="&lt;ul&gt;&lt;li style=&quot;padding-top: 0px; padding-bottom: 0px; margin: 0.2em; box-sizing: border-box; overflow-wrap: break-word;&quot;&gt;登場人物（アクター）を明確にすること&lt;/li&gt;&lt;li style=&quot;padding-top: 0px; padding-bottom: 0px; margin: 0.2em; box-sizing: border-box; overflow-wrap: break-word;&quot;&gt;登場人物（アクター）がシステムに対してどのような操作を行うのかを明確にすること&lt;/li&gt;&lt;li style=&quot;padding-top: 0px; padding-bottom: 0px; margin: 0.2em 0.2em 0px; box-sizing: border-box; overflow-wrap: break-word;&quot;&gt;対象のシステムのスコープとそれに関連する外部システム、サービスを明確にすること&lt;/li&gt;&lt;/ul&gt;" style="text;strokeColor=none;fillColor=none;html=1;whiteSpace=wrap;verticalAlign=middle;overflow=hidden;" vertex="1" parent="1">
                    <mxGeometry x="10" y="50" width="550" height="80" as="geometry"/>
                </mxCell>
                <mxCell id="20" value="コンテキスト図" style="text;strokeColor=none;fillColor=none;html=1;fontSize=24;fontStyle=1;verticalAlign=middle;align=center;" vertex="1" parent="1">
                    <mxGeometry x="25" y="10" width="190" height="40" as="geometry"/>
                </mxCell>
                <mxCell id="21" value="プレイヤー同士（異なるデバイス）&lt;br&gt;で交互に打つ" style="shape=note;whiteSpace=wrap;html=1;backgroundOutline=1;darkOpacity=0.05;fillColor=#ffe6cc;strokeColor=#d79b00;" vertex="1" parent="1">
                    <mxGeometry x="304" y="490" width="220" height="50" as="geometry"/>
                </mxCell>
                <mxCell id="22" value="" style="endArrow=none;dashed=1;html=1;entryX=0.5;entryY=0;entryDx=0;entryDy=0;entryPerimeter=0;" edge="1" parent="1" target="21">
                    <mxGeometry width="50" height="50" relative="1" as="geometry">
                        <mxPoint x="310" y="360" as="sourcePoint"/>
                        <mxPoint x="430" y="270" as="targetPoint"/>
                    </mxGeometry>
                </mxCell>
                <mxCell id="23" value="" style="endArrow=none;dashed=1;html=1;exitX=0.5;exitY=0;exitDx=0;exitDy=0;exitPerimeter=0;" edge="1" parent="1" source="21">
                    <mxGeometry width="50" height="50" relative="1" as="geometry">
                        <mxPoint x="380" y="350" as="sourcePoint"/>
                        <mxPoint x="520" y="360" as="targetPoint"/>
                    </mxGeometry>
                </mxCell>
            </root>
        </mxGraphModel>
    </diagram>
</mxfile>